<?xml version="1.0" standalone="no"?>
<!DOCTYPE svg PUBLIC "-//W3C//DTD SVG 20010904//EN"
 "http://www.w3.org/TR/2001/REC-SVG-20010904/DTD/svg10.dtd">
<svg version="1.0" xmlns="http://www.w3.org/2000/svg"
 width="782.000000pt" height="275.000000pt" viewBox="0 0 782.000000 275.000000"
 preserveAspectRatio="xMidYMid meet">
<metadata>
Created by potrace 1.11, written by Peter Selinger 2001-2013
</metadata>
<g transform="translate(0.000000,275.000000) scale(0.100000,-0.100000)"
fill="#000000" stroke="none">
<path d="M330 1372 c0 -489 3 -892 7 -895 7 -8 14 -4 513 278 206 117 402 227
435 244 33 18 78 44 100 57 22 14 146 85 275 158 161 92 235 139 235 151 0 11
-75 60 -235 152 -264 152 -429 246 -540 308 -41 23 -229 130 -418 238 -188
108 -349 197 -357 197 -13 0 -15 -113 -15 -888z"/>
</g>
</svg>
